  0
SECTION
  2
HEADER
  9
$ACADVER
  1
AC1014
  9
$HANDSEED
  5
FFFF
  9
$MEASUREMENT
 70
     1
  0
ENDSEC
  0
SECTION
  2
TABLES
  0
TABLE
  2
VPORT
  5
8
330
0
100
AcDbSymbolTable
 70
     4
  0
VPORT
  5
2E
330
8
100
AcDbSymbolTableRecord
100
AcDbViewportTableRecord
  2
*ACTIVE
 70
     0
 10
0.0
 20
0.0
 11
1.0
 21
1.0
 12
210.0
 22
148.5
 13
0.0
 23
0.0
 14
10.0
 24
10.0
 15
10.0
 25
10.0
 16
0.0
 26
0.0
 36
1.0
 17
0.0
 27
0.0
 37
0.0
 40
341.0
 41
1.24
 42
50.0
 43
0.0
 44
0.0
 50
0.0
 51
0.0
 71
     0
 72
   100
 73
     1
 74
     3
 75
     0
 76
     0
 77
     0
 78
     0
  0
ENDTAB
  0
TABLE
  2
LTYPE
  5
5
330
0
100
AcDbSymbolTable
 70
     1
  0
LTYPE
  5
14
330
5
100
AcDbSymbolTableRecord
100
AcDbLinetypeTableRecord
  2
BYBLOCK
 70
     0
  3

 72
    65
 73
     0
 40
0.0
  0
LTYPE
  5
15
330
5
100
AcDbSymbolTableRecord
100
AcDbLinetypeTableRecord
  2
BYLAYER
 70
     0
  3

 72
    65
 73
     0
 40
0.0
  0
LTYPE
  5
16
330
5
100
AcDbSymbolTableRecord
100
AcDbLinetypeTableRecord
  2
CONTINUOUS
 70
     0
  3
Solid line
 72
    65
 73
     0
 40
0.0
  0
ENDTAB
  0
TABLE
  2
LAYER
  5
2
100
AcDbSymbolTable
 70
1
  0
LAYER
  5
50
100
AcDbSymbolTableRecord
100
AcDbLayerTableRecord
  2
0
 70
0
  6
CONTINUOUS
  0
ENDTAB
  0
TABLE
  2
STYLE
  5
3
330
0
100
AcDbSymbolTable
 70
     1
  0
STYLE
  5
11
330
3
100
AcDbSymbolTableRecord
100
AcDbTextStyleTableRecord
  2
STANDARD
 70
     0
 40
0.0
 41
1.0
 50
0.0
 71
     0
 42
2.5
  3
txt
  4

  0
ENDTAB
  0
TABLE
  2
VIEW
  5
6
330
0
100
AcDbSymbolTable
 70
     0
  0
ENDTAB
  0
TABLE
  2
UCS
  5
7
330
0
100
AcDbSymbolTable
 70
     0
  0
ENDTAB
  0
TABLE
  2
APPID
  5
9
330
0
100
AcDbSymbolTable
 70
     2
  0
APPID
  5
12
330
9
100
AcDbSymbolTableRecord
100
AcDbRegAppTableRecord
  2
ACAD
 70
     0
  0
ENDTAB
  0
TABLE
  2
DIMSTYLE
  5
A
330
0
100
AcDbSymbolTable
 70
     1
  0
DIMSTYLE
105
27
330
A
100
AcDbSymbolTableRecord
100
AcDbDimStyleTableRecord
  2
ISO-25
 70
     0
  3

  4

  5

  6

  7

 40
1.0
 41
2.5
 42
0.625
 43
3.75
 44
1.25
 45
0.0
 46
0.0
 47
0.0
 48
0.0
140
2.5
141
2.5
142
0.0
143
0.03937007874016
144
1.0
145
0.0
146
1.0
147
0.625
 71
     0
 72
     0
 73
     0
 74
     0
 75
     0
 76
     0
 77
     1
 78
     8
170
     0
171
     3
172
     1
173
     0
174
     0
175
     0
176
     0
177
     0
178
     0
270
     2
271
     2
272
     2
273
     2
274
     3
340
11
275
     0
280
     0
281
     0
282
     0
283
     0
284
     8
285
     0
286
     0
287
     3
288
     0
  0
ENDTAB
  0
TABLE
  2
BLOCK_RECORD
  5
1
330
0
100
AcDbSymbolTable
 70
     1
  0
BLOCK_RECORD
  5
1F
330
1
100
AcDbSymbolTableRecord
100
AcDbBlockTableRecord
  2
*MODEL_SPACE
  0
BLOCK_RECORD
  5
1B
330
1
100
AcDbSymbolTableRecord
100
AcDbBlockTableRecord
  2
*PAPER_SPACE
  0
ENDTAB
  0
ENDSEC
  0
SECTION
  2
BLOCKS
  0
BLOCK
  5
20
330
1F
100
AcDbEntity
  8
0
100
AcDbBlockBegin
  2
*MODEL_SPACE
 70
     0
 10
0.0
 20
0.0
 30
0.0
  3
*MODEL_SPACE
  1

  0
ENDBLK
  5
21
330
1F
100
AcDbEntity
  8
0
100
AcDbBlockEnd
  0
BLOCK
  5
1C
330
1B
100
AcDbEntity
 67
     1
  8
0
100
AcDbBlockBegin
  2
*PAPER_SPACE
  1

  0
ENDBLK
  5
1D
330
1B
100
AcDbEntity
 67
     1
  8
0
100
AcDbBlockEnd
  0
ENDSEC
  0
SECTION
  2
ENTITIES
  0
LWPOLYLINE
  5
100
100
AcDbEntity
  8
0
 62
7
100
AcDbPolyline
 90
30
 70
1
 10
6.877357
 20
282.559164
 30
0.0
 10
7.090417
 20
280.532032
 30
0.0
 10
7.720287
 20
278.593483
 30
0.0
 10
8.739437
 20
276.828262
 30
0.0
 10
10.103337
 20
275.313496
 30
0.0
 10
11.752357
 20
274.115410
 30
0.0
 10
13.614437
 20
273.286365
 30
0.0
 10
15.608207
 20
272.862582
 30
0.0
 10
17.646507
 20
272.862582
 30
0.0
 10
19.640277
 20
273.286365
 30
0.0
 10
21.502357
 20
274.115410
 30
0.0
 10
23.151377
 20
275.313496
 30
0.0
 10
24.515277
 20
276.828262
 30
0.0
 10
25.534426
 20
278.593483
 30
0.0
 10
26.164298
 20
280.532032
 30
0.0
 10
26.377357
 20
282.559164
 30
0.0
 10
26.164298
 20
284.586296
 30
0.0
 10
25.534426
 20
286.524845
 30
0.0
 10
24.515277
 20
288.290065
 30
0.0
 10
23.151377
 20
289.804831
 30
0.0
 10
21.502357
 20
291.002918
 30
0.0
 10
19.640277
 20
291.831963
 30
0.0
 10
17.646507
 20
292.255746
 30
0.0
 10
15.608207
 20
292.255746
 30
0.0
 10
13.614437
 20
291.831963
 30
0.0
 10
11.752357
 20
291.002918
 30
0.0
 10
10.103337
 20
289.804831
 30
0.0
 10
8.739437
 20
288.290065
 30
0.0
 10
7.720287
 20
286.524845
 30
0.0
 10
7.090417
 20
284.586296
 30
0.0
  0
LWPOLYLINE
  5
101
100
AcDbEntity
  8
0
 62
7
100
AcDbPolyline
 90
30
 70
1
 10
29.254733
 20
282.559164
 30
0.0
 10
29.467794
 20
280.532032
 30
0.0
 10
30.097664
 20
278.593483
 30
0.0
 10
31.116812
 20
276.828262
 30
0.0
 10
32.480713
 20
275.313496
 30
0.0
 10
34.129734
 20
274.115410
 30
0.0
 10
35.991813
 20
273.286365
 30
0.0
 10
37.985584
 20
272.862582
 30
0.0
 10
40.023883
 20
272.862582
 30
0.0
 10
42.017654
 20
273.286365
 30
0.0
 10
43.879733
 20
274.115410
 30
0.0
 10
45.528754
 20
275.313496
 30
0.0
 10
46.892654
 20
276.828262
 30
0.0
 10
47.911803
 20
278.593483
 30
0.0
 10
48.541675
 20
280.532032
 30
0.0
 10
48.754734
 20
282.559164
 30
0.0
 10
48.541675
 20
284.586296
 30
0.0
 10
47.911803
 20
286.524845
 30
0.0
 10
46.892654
 20
288.290065
 30
0.0
 10
45.528754
 20
289.804831
 30
0.0
 10
43.879733
 20
291.002918
 30
0.0
 10
42.017654
 20
291.831963
 30
0.0
 10
40.023883
 20
292.255746
 30
0.0
 10
37.985584
 20
292.255746
 30
0.0
 10
35.991813
 20
291.831963
 30
0.0
 10
34.129734
 20
291.002918
 30
0.0
 10
32.480713
 20
289.804831
 30
0.0
 10
31.116812
 20
288.290065
 30
0.0
 10
30.097664
 20
286.524845
 30
0.0
 10
29.467794
 20
284.586296
 30
0.0
  0
LWPOLYLINE
  5
102
100
AcDbEntity
  8
0
 62
7
100
AcDbPolyline
 90
30
 70
1
 10
51.423596
 20
282.527542
 30
0.0
 10
51.636657
 20
280.500411
 30
0.0
 10
52.266527
 20
278.561862
 30
0.0
 10
53.285678
 20
276.796641
 30
0.0
 10
54.649576
 20
275.281875
 30
0.0
 10
56.298597
 20
274.083789
 30
0.0
 10
58.160677
 20
273.254743
 30
0.0
 10
60.154447
 20
272.830960
 30
0.0
 10
62.192747
 20
272.830960
 30
0.0
 10
64.186517
 20
273.254743
 30
0.0
 10
66.048596
 20
274.083789
 30
0.0
 10
67.697617
 20
275.281875
 30
0.0
 10
69.061518
 20
276.796641
 30
0.0
 10
70.080666
 20
278.561862
 30
0.0
 10
70.710539
 20
280.500411
 30
0.0
 10
70.923597
 20
282.527542
 30
0.0
 10
70.710539
 20
284.554674
 30
0.0
 10
70.080666
 20
286.493223
 30
0.0
 10
69.061518
 20
288.258444
 30
0.0
 10
67.697617
 20
289.773211
 30
0.0
 10
66.048596
 20
290.971297
 30
0.0
 10
64.186517
 20
291.800342
 30
0.0
 10
62.192747
 20
292.224125
 30
0.0
 10
60.154447
 20
292.224125
 30
0.0
 10
58.160677
 20
291.800342
 30
0.0
 10
56.298597
 20
290.971297
 30
0.0
 10
54.649576
 20
289.773211
 30
0.0
 10
53.285678
 20
288.258444
 30
0.0
 10
52.266527
 20
286.493223
 30
0.0
 10
51.636657
 20
284.554674
 30
0.0
  0
LWPOLYLINE
  5
103
100
AcDbEntity
  8
0
 62
7
100
AcDbPolyline
 90
30
 70
1
 10
73.800973
 20
282.527542
 30
0.0
 10
74.014034
 20
280.500411
 30
0.0
 10
74.643903
 20
278.561862
 30
0.0
 10
75.663052
 20
276.796641
 30
0.0
 10
77.026953
 20
275.281875
 30
0.0
 10
78.675973
 20
274.083789
 30
0.0
 10
80.538053
 20
273.254743
 30
0.0
 10
82.531823
 20
272.830960
 30
0.0
 10
84.570123
 20
272.830960
 30
0.0
 10
86.563893
 20
273.254743
 30
0.0
 10
88.425973
 20
274.083789
 30
0.0
 10
90.074993
 20
275.281875
 30
0.0
 10
91.438894
 20
276.796641
 30
0.0
 10
92.458043
 20
278.561862
 30
0.0
 10
93.087915
 20
280.500411
 30
0.0
 10
93.300973
 20
282.527542
 30
0.0
 10
93.087915
 20
284.554674
 30
0.0
 10
92.458043
 20
286.493223
 30
0.0
 10
91.438894
 20
288.258444
 30
0.0
 10
90.074993
 20
289.773211
 30
0.0
 10
88.425973
 20
290.971297
 30
0.0
 10
86.563893
 20
291.800342
 30
0.0
 10
84.570123
 20
292.224125
 30
0.0
 10
82.531823
 20
292.224125
 30
0.0
 10
80.538053
 20
291.800342
 30
0.0
 10
78.675973
 20
290.971297
 30
0.0
 10
77.026953
 20
289.773211
 30
0.0
 10
75.663052
 20
288.258444
 30
0.0
 10
74.643903
 20
286.493223
 30
0.0
 10
74.014034
 20
284.554674
 30
0.0
  0
LWPOLYLINE
  5
104
100
AcDbEntity
  8
0
 62
7
100
AcDbPolyline
 90
30
 70
1
 10
96.321557
 20
282.543354
 30
0.0
 10
96.534618
 20
280.516222
 30
0.0
 10
97.164488
 20
278.577673
 30
0.0
 10
98.183637
 20
276.812453
 30
0.0
 10
99.547537
 20
275.297686
 30
0.0
 10
101.196558
 20
274.099600
 30
0.0
 10
103.058637
 20
273.270555
 30
0.0
 10
105.052408
 20
272.846772
 30
0.0
 10
107.090707
 20
272.846772
 30
0.0
 10
109.084478
 20
273.270555
 30
0.0
 10
110.946557
 20
274.099600
 30
0.0
 10
112.595578
 20
275.297686
 30
0.0
 10
113.959479
 20
276.812453
 30
0.0
 10
114.978627
 20
278.577673
 30
0.0
 10
115.608500
 20
280.516222
 30
0.0
 10
115.821558
 20
282.543354
 30
0.0
 10
115.608500
 20
284.570486
 30
0.0
 10
114.978627
 20
286.509035
 30
0.0
 10
113.959479
 20
288.274255
 30
0.0
 10
112.595578
 20
289.789021
 30
0.0
 10
110.946557
 20
290.987108
 30
0.0
 10
109.084478
 20
291.816153
 30
0.0
 10
107.090707
 20
292.239936
 30
0.0
 10
105.052408
 20
292.239936
 30
0.0
 10
103.058637
 20
291.816153
 30
0.0
 10
101.196558
 20
290.987108
 30
0.0
 10
99.547537
 20
289.789021
 30
0.0
 10
98.183637
 20
288.274255
 30
0.0
 10
97.164488
 20
286.509035
 30
0.0
 10
96.534618
 20
284.570486
 30
0.0
  0
LWPOLYLINE
  5
105
100
AcDbEntity
  8
0
 62
7
100
AcDbPolyline
 90
30
 70
1
 10
118.698933
 20
282.543354
 30
0.0
 10
118.911994
 20
280.516222
 30
0.0
 10
119.541864
 20
278.577673
 30
0.0
 10
120.561013
 20
276.812453
 30
0.0
 10
121.924913
 20
275.297686
 30
0.0
 10
123.573934
 20
274.099600
 30
0.0
 10
125.436014
 20
273.270555
 30
0.0
 10
127.429784
 20
272.846772
 30
0.0
 10
129.468084
 20
272.846772
 30
0.0
 10
131.461854
 20
273.270555
 30
0.0
 10
133.323933
 20
274.099600
 30
0.0
 10
134.972954
 20
275.297686
 30
0.0
 10
136.336855
 20
276.812453
 30
0.0
 10
137.356003
 20
278.577673
 30
0.0
 10
137.985876
 20
280.516222
 30
0.0
 10
138.198934
 20
282.543354
 30
0.0
 10
137.985876
 20
284.570486
 30
0.0
 10
137.356003
 20
286.509035
 30
0.0
 10
136.336855
 20
288.274255
 30
0.0
 10
134.972954
 20
289.789021
 30
0.0
 10
133.323933
 20
290.987108
 30
0.0
 10
131.461854
 20
291.816153
 30
0.0
 10
129.468084
 20
292.239936
 30
0.0
 10
127.429784
 20
292.239936
 30
0.0
 10
125.436014
 20
291.816153
 30
0.0
 10
123.573934
 20
290.987108
 30
0.0
 10
121.924913
 20
289.789021
 30
0.0
 10
120.561013
 20
288.274255
 30
0.0
 10
119.541864
 20
286.509035
 30
0.0
 10
118.911994
 20
284.570486
 30
0.0
  0
LWPOLYLINE
  5
106
100
AcDbEntity
  8
0
 62
7
100
AcDbPolyline
 90
30
 70
1
 10
140.867797
 20
282.511733
 30
0.0
 10
141.080858
 20
280.484601
 30
0.0
 10
141.710728
 20
278.546052
 30
0.0
 10
142.729879
 20
276.780831
 30
0.0
 10
144.093777
 20
275.266065
 30
0.0
 10
145.742798
 20
274.067979
 30
0.0
 10
147.604877
 20
273.238933
 30
0.0
 10
149.598647
 20
272.815150
 30
0.0
 10
151.636947
 20
272.815150
 30
0.0
 10
153.630717
 20
273.238933
 30
0.0
 10
155.492797
 20
274.067979
 30
0.0
 10
157.141818
 20
275.266065
 30
0.0
 10
158.505718
 20
276.780831
 30
0.0
 10
159.524867
 20
278.546052
 30
0.0
 10
160.154739
 20
280.484601
 30
0.0
 10
160.367797
 20
282.511733
 30
0.0
 10
160.154739
 20
284.538864
 30
0.0
 10
159.524867
 20
286.477413
 30
0.0
 10
158.505718
 20
288.242634
 30
0.0
 10
157.141818
 20
289.757401
 30
0.0
 10
155.492797
 20
290.955487
 30
0.0
 10
153.630717
 20
291.784532
 30
0.0
 10
151.636947
 20
292.208315
 30
0.0
 10
149.598647
 20
292.208315
 30
0.0
 10
147.604877
 20
291.784532
 30
0.0
 10
145.742798
 20
290.955487
 30
0.0
 10
144.093777
 20
289.757401
 30
0.0
 10
142.729879
 20
288.242634
 30
0.0
 10
141.710728
 20
286.477413
 30
0.0
 10
141.080858
 20
284.538864
 30
0.0
  0
LWPOLYLINE
  5
107
100
AcDbEntity
  8
0
 62
7
100
AcDbPolyline
 90
30
 70
1
 10
163.245173
 20
282.511733
 30
0.0
 10
163.458234
 20
280.484601
 30
0.0
 10
164.088104
 20
278.546052
 30
0.0
 10
165.107252
 20
276.780831
 30
0.0
 10
166.471153
 20
275.266065
 30
0.0
 10
168.120174
 20
274.067979
 30
0.0
 10
169.982253
 20
273.238933
 30
0.0
 10
171.976023
 20
272.815150
 30
0.0
 10
174.014323
 20
272.815150
 30
0.0
 10
176.008094
 20
273.238933
 30
0.0
 10
177.870173
 20
274.067979
 30
0.0
 10
179.519194
 20
275.266065
 30
0.0
 10
180.883094
 20
276.780831
 30
0.0
 10
181.902243
 20
278.546052
 30
0.0
 10
182.532115
 20
280.484601
 30
0.0
 10
182.745174
 20
282.511733
 30
0.0
 10
182.532115
 20
284.538864
 30
0.0
 10
181.902243
 20
286.477413
 30
0.0
 10
180.883094
 20
288.242634
 30
0.0
 10
179.519194
 20
289.757401
 30
0.0
 10
177.870173
 20
290.955487
 30
0.0
 10
176.008094
 20
291.784532
 30
0.0
 10
174.014323
 20
292.208315
 30
0.0
 10
171.976023
 20
292.208315
 30
0.0
 10
169.982253
 20
291.784532
 30
0.0
 10
168.120174
 20
290.955487
 30
0.0
 10
166.471153
 20
289.757401
 30
0.0
 10
165.107252
 20
288.242634
 30
0.0
 10
164.088104
 20
286.477413
 30
0.0
 10
163.458234
 20
284.538864
 30
0.0
  0
LWPOLYLINE
  5
108
100
AcDbEntity
  8
0
 62
7
100
AcDbPolyline
 90
30
 70
1
 10
17.777952
 20
263.988760
 30
0.0
 10
17.991013
 20
261.961629
 30
0.0
 10
18.620883
 20
260.023080
 30
0.0
 10
19.640034
 20
258.257859
 30
0.0
 10
21.003935
 20
256.743093
 30
0.0
 10
22.652953
 20
255.545007
 30
0.0
 10
24.515035
 20
254.715961
 30
0.0
 10
26.508803
 20
254.292178
 30
0.0
 10
28.547105
 20
254.292178
 30
0.0
 10
30.540873
 20
254.715961
 30
0.0
 10
32.402955
 20
255.545007
 30
0.0
 10
34.051973
 20
256.743093
 30
0.0
 10
35.415874
 20
258.257859
 30
0.0
 10
36.435022
 20
260.023080
 30
0.0
 10
37.064894
 20
261.961629
 30
0.0
 10
37.277953
 20
263.988760
 30
0.0
 10
37.064894
 20
266.015892
 30
0.0
 10
36.435022
 20
267.954441
 30
0.0
 10
35.415874
 20
269.719662
 30
0.0
 10
34.051973
 20
271.234427
 30
0.0
 10
32.402955
 20
272.432513
 30
0.0
 10
30.540873
 20
273.261558
 30
0.0
 10
28.547105
 20
273.685341
 30
0.0
 10
26.508803
 20
273.685341
 30
0.0
 10
24.515035
 20
273.261558
 30
0.0
 10
22.652953
 20
272.432513
 30
0.0
 10
21.003935
 20
271.234427
 30
0.0
 10
19.640034
 20
269.719662
 30
0.0
 10
18.620883
 20
267.954441
 30
0.0
 10
17.991013
 20
266.015892
 30
0.0
  0
LWPOLYLINE
  5
109
100
AcDbEntity
  8
0
 62
7
100
AcDbPolyline
 90
30
 70
1
 10
40.155331
 20
263.988760
 30
0.0
 10
40.368392
 20
261.961629
 30
0.0
 10
40.998262
 20
260.023080
 30
0.0
 10
42.017410
 20
258.257859
 30
0.0
 10
43.381311
 20
256.743093
 30
0.0
 10
45.030329
 20
255.545007
 30
0.0
 10
46.892408
 20
254.715961
 30
0.0
 10
48.886179
 20
254.292178
 30
0.0
 10
50.924479
 20
254.292178
 30
0.0
 10
52.918249
 20
254.715961
 30
0.0
 10
54.780328
 20
255.545007
 30
0.0
 10
56.429349
 20
256.743093
 30
0.0
 10
57.793250
 20
258.257859
 30
0.0
 10
58.812398
 20
260.023080
 30
0.0
 10
59.442271
 20
261.961629
 30
0.0
 10
59.655329
 20
263.988760
 30
0.0
 10
59.442271
 20
266.015892
 30
0.0
 10
58.812398
 20
267.954441
 30
0.0
 10
57.793250
 20
269.719662
 30
0.0
 10
56.429349
 20
271.234427
 30
0.0
 10
54.780328
 20
272.432513
 30
0.0
 10
52.918249
 20
273.261558
 30
0.0
 10
50.924479
 20
273.685341
 30
0.0
 10
48.886179
 20
273.685341
 30
0.0
 10
46.892408
 20
273.261558
 30
0.0
 10
45.030329
 20
272.432513
 30
0.0
 10
43.381311
 20
271.234427
 30
0.0
 10
42.017410
 20
269.719662
 30
0.0
 10
40.998262
 20
267.954441
 30
0.0
 10
40.368392
 20
266.015892
 30
0.0
  0
LWPOLYLINE
  5
10a
100
AcDbEntity
  8
0
 62
7
100
AcDbPolyline
 90
30
 70
1
 10
62.324192
 20
263.957137
 30
0.0
 10
62.537253
 20
261.930006
 30
0.0
 10
63.167122
 20
259.991457
 30
0.0
 10
64.186274
 20
258.226236
 30
0.0
 10
65.550172
 20
256.711470
 30
0.0
 10
67.199192
 20
255.513384
 30
0.0
 10
69.061272
 20
254.684338
 30
0.0
 10
71.055042
 20
254.260555
 30
0.0
 10
73.093342
 20
254.260555
 30
0.0
 10
75.087112
 20
254.684338
 30
0.0
 10
76.949192
 20
255.513384
 30
0.0
 10
78.598212
 20
256.711470
 30
0.0
 10
79.962113
 20
258.226236
 30
0.0
 10
80.981262
 20
259.991457
 30
0.0
 10
81.611134
 20
261.930006
 30
0.0
 10
81.824192
 20
263.957137
 30
0.0
 10
81.611134
 20
265.984269
 30
0.0
 10
80.981262
 20
267.922818
 30
0.0
 10
79.962113
 20
269.688039
 30
0.0
 10
78.598212
 20
271.202806
 30
0.0
 10
76.949192
 20
272.400892
 30
0.0
 10
75.087112
 20
273.229938
 30
0.0
 10
73.093342
 20
273.653721
 30
0.0
 10
71.055042
 20
273.653721
 30
0.0
 10
69.061272
 20
273.229938
 30
0.0
 10
67.199192
 20
272.400892
 30
0.0
 10
65.550172
 20
271.202806
 30
0.0
 10
64.186274
 20
269.688039
 30
0.0
 10
63.167122
 20
267.922818
 30
0.0
 10
62.537253
 20
265.984269
 30
0.0
  0
LWPOLYLINE
  5
10b
100
AcDbEntity
  8
0
 62
7
100
AcDbPolyline
 90
30
 70
1
 10
84.701568
 20
263.957137
 30
0.0
 10
84.914629
 20
261.930006
 30
0.0
 10
85.544499
 20
259.991457
 30
0.0
 10
86.563647
 20
258.226236
 30
0.0
 10
87.927548
 20
256.711470
 30
0.0
 10
89.576569
 20
255.513384
 30
0.0
 10
91.438648
 20
254.684338
 30
0.0
 10
93.432418
 20
254.260555
 30
0.0
 10
95.470718
 20
254.260555
 30
0.0
 10
97.464488
 20
254.684338
 30
0.0
 10
99.326568
 20
255.513384
 30
0.0
 10
100.975589
 20
256.711470
 30
0.0
 10
102.339489
 20
258.226236
 30
0.0
 10
103.358638
 20
259.991457
 30
0.0
 10
103.988510
 20
261.930006
 30
0.0
 10
104.201569
 20
263.957137
 30
0.0
 10
103.988510
 20
265.984269
 30
0.0
 10
103.358638
 20
267.922818
 30
0.0
 10
102.339489
 20
269.688039
 30
0.0
 10
100.975589
 20
271.202806
 30
0.0
 10
99.326568
 20
272.400892
 30
0.0
 10
97.464488
 20
273.229938
 30
0.0
 10
95.470718
 20
273.653721
 30
0.0
 10
93.432418
 20
273.653721
 30
0.0
 10
91.438648
 20
273.229938
 30
0.0
 10
89.576569
 20
272.400892
 30
0.0
 10
87.927548
 20
271.202806
 30
0.0
 10
86.563647
 20
269.688039
 30
0.0
 10
85.544499
 20
267.922818
 30
0.0
 10
84.914629
 20
265.984269
 30
0.0
  0
LWPOLYLINE
  5
10c
100
AcDbEntity
  8
0
 62
7
100
AcDbPolyline
 90
30
 70
1
 10
107.222152
 20
263.972949
 30
0.0
 10
107.435213
 20
261.945817
 30
0.0
 10
108.065083
 20
260.007268
 30
0.0
 10
109.084232
 20
258.242047
 30
0.0
 10
110.448132
 20
256.727281
 30
0.0
 10
112.097153
 20
255.529195
 30
0.0
 10
113.959233
 20
254.700150
 30
0.0
 10
115.953003
 20
254.276367
 30
0.0
 10
117.991303
 20
254.276367
 30
0.0
 10
119.985073
 20
254.700150
 30
0.0
 10
121.847152
 20
255.529195
 30
0.0
 10
123.496173
 20
256.727281
 30
0.0
 10
124.860074
 20
258.242047
 30
0.0
 10
125.879222
 20
260.007268
 30
0.0
 10
126.509095
 20
261.945817
 30
0.0
 10
126.722153
 20
263.972949
 30
0.0
 10
126.509095
 20
266.000081
 30
0.0
 10
125.879222
 20
267.938630
 30
0.0
 10
124.860074
 20
269.703850
 30
0.0
 10
123.496173
 20
271.218617
 30
0.0
 10
121.847152
 20
272.416703
 30
0.0
 10
119.985073
 20
273.245748
 30
0.0
 10
117.991303
 20
273.669531
 30
0.0
 10
115.953003
 20
273.669531
 30
0.0
 10
113.959233
 20
273.245748
 30
0.0
 10
112.097153
 20
272.416703
 30
0.0
 10
110.448132
 20
271.218617
 30
0.0
 10
109.084232
 20
269.703850
 30
0.0
 10
108.065083
 20
267.938630
 30
0.0
 10
107.435213
 20
266.000081
 30
0.0
  0
LWPOLYLINE
  5
10d
100
AcDbEntity
  8
0
 62
7
100
AcDbPolyline
 90
30
 70
1
 10
129.599529
 20
263.972949
 30
0.0
 10
129.812590
 20
261.945817
 30
0.0
 10
130.442459
 20
260.007268
 30
0.0
 10
131.461608
 20
258.242047
 30
0.0
 10
132.825509
 20
256.727281
 30
0.0
 10
134.474529
 20
255.529195
 30
0.0
 10
136.336609
 20
254.700150
 30
0.0
 10
138.330379
 20
254.276367
 30
0.0
 10
140.368679
 20
254.276367
 30
0.0
 10
142.362449
 20
254.700150
 30
0.0
 10
144.224528
 20
255.529195
 30
0.0
 10
145.873549
 20
256.727281
 30
0.0
 10
147.237450
 20
258.242047
 30
0.0
 10
148.256599
 20
260.007268
 30
0.0
 10
148.886471
 20
261.945817
 30
0.0
 10
149.099529
 20
263.972949
 30
0.0
 10
148.886471
 20
266.000081
 30
0.0
 10
148.256599
 20
267.938630
 30
0.0
 10
147.237450
 20
269.703850
 30
0.0
 10
145.873549
 20
271.218617
 30
0.0
 10
144.224528
 20
272.416703
 30
0.0
 10
142.362449
 20
273.245748
 30
0.0
 10
140.368679
 20
273.669531
 30
0.0
 10
138.330379
 20
273.669531
 30
0.0
 10
136.336609
 20
273.245748
 30
0.0
 10
134.474529
 20
272.416703
 30
0.0
 10
132.825509
 20
271.218617
 30
0.0
 10
131.461608
 20
269.703850
 30
0.0
 10
130.442459
 20
267.938630
 30
0.0
 10
129.812590
 20
266.000081
 30
0.0
  0
LWPOLYLINE
  5
10e
100
AcDbEntity
  8
0
 62
7
100
AcDbPolyline
 90
30
 70
1
 10
151.768392
 20
263.941329
 30
0.0
 10
151.981453
 20
261.914197
 30
0.0
 10
152.611323
 20
259.975648
 30
0.0
 10
153.630474
 20
258.210427
 30
0.0
 10
154.994372
 20
256.695661
 30
0.0
 10
156.643393
 20
255.497575
 30
0.0
 10
158.505472
 20
254.668529
 30
0.0
 10
160.499242
 20
254.244746
 30
0.0
 10
162.537542
 20
254.244746
 30
0.0
 10
164.531313
 20
254.668529
 30
0.0
 10
166.393392
 20
255.497575
 30
0.0
 10
168.042413
 20
256.695661
 30
0.0
 10
169.406313
 20
258.210427
 30
0.0
 10
170.425462
 20
259.975648
 30
0.0
 10
171.055334
 20
261.914197
 30
0.0
 10
171.268393
 20
263.941329
 30
0.0
 10
171.055334
 20
265.968460
 30
0.0
 10
170.425462
 20
267.907009
 30
0.0
 10
169.406313
 20
269.672230
 30
0.0
 10
168.042413
 20
271.186996
 30
0.0
 10
166.393392
 20
272.385083
 30
0.0
 10
164.531313
 20
273.214128
 30
0.0
 10
162.537542
 20
273.637911
 30
0.0
 10
160.499242
 20
273.637911
 30
0.0
 10
158.505472
 20
273.214128
 30
0.0
 10
156.643393
 20
272.385083
 30
0.0
 10
154.994372
 20
271.186996
 30
0.0
 10
153.630474
 20
269.672230
 30
0.0
 10
152.611323
 20
267.907009
 30
0.0
 10
151.981453
 20
265.968460
 30
0.0
  0
LWPOLYLINE
  5
10f
100
AcDbEntity
  8
0
 62
7
100
AcDbPolyline
 90
30
 70
1
 10
174.145768
 20
263.941329
 30
0.0
 10
174.358829
 20
261.914197
 30
0.0
 10
174.988699
 20
259.975648
 30
0.0
 10
176.007847
 20
258.210427
 30
0.0
 10
177.371748
 20
256.695661
 30
0.0
 10
179.020769
 20
255.497575
 30
0.0
 10
180.882848
 20
254.668529
 30
0.0
 10
182.876619
 20
254.244746
 30
0.0
 10
184.914918
 20
254.244746
 30
0.0
 10
186.908689
 20
254.668529
 30
0.0
 10
188.770768
 20
255.497575
 30
0.0
 10
190.419789
 20
256.695661
 30
0.0
 10
191.783690
 20
258.210427
 30
0.0
 10
192.802838
 20
259.975648
 30
0.0
 10
193.432710
 20
261.914197
 30
0.0
 10
193.645769
 20
263.941329
 30
0.0
 10
193.432710
 20
265.968460
 30
0.0
 10
192.802838
 20
267.907009
 30
0.0
 10
191.783690
 20
269.672230
 30
0.0
 10
190.419789
 20
271.186996
 30
0.0
 10
188.770768
 20
272.385083
 30
0.0
 10
186.908689
 20
273.214128
 30
0.0
 10
184.914918
 20
273.637911
 30
0.0
 10
182.876619
 20
273.637911
 30
0.0
 10
180.882848
 20
273.214128
 30
0.0
 10
179.020769
 20
272.385083
 30
0.0
 10
177.371748
 20
271.186996
 30
0.0
 10
176.007847
 20
269.672230
 30
0.0
 10
174.988699
 20
267.907009
 30
0.0
 10
174.358829
 20
265.968460
 30
0.0
  0
LWPOLYLINE
  5
110
100
AcDbEntity
  8
0
 62
7
100
AcDbPolyline
 90
30
 70
1
 10
6.766301
 20
245.426260
 30
0.0
 10
6.979361
 20
243.399129
 30
0.0
 10
7.609231
 20
241.460580
 30
0.0
 10
8.628381
 20
239.695359
 30
0.0
 10
9.992281
 20
238.180593
 30
0.0
 10
11.641301
 20
236.982507
 30
0.0
 10
13.503381
 20
236.153461
 30
0.0
 10
15.497151
 20
235.729678
 30
0.0
 10
17.535451
 20
235.729678
 30
0.0
 10
19.529221
 20
236.153461
 30
0.0
 10
21.391301
 20
236.982507
 30
0.0
 10
23.040321
 20
238.180593
 30
0.0
 10
24.404222
 20
239.695359
 30
0.0
 10
25.423370
 20
241.460580
 30
0.0
 10
26.053243
 20
243.399129
 30
0.0
 10
26.266301
 20
245.426260
 30
0.0
 10
26.053243
 20
247.453392
 30
0.0
 10
25.423370
 20
249.391941
 30
0.0
 10
24.404222
 20
251.157162
 30
0.0
 10
23.040321
 20
252.671928
 30
0.0
 10
21.391301
 20
253.870014
 30
0.0
 10
19.529221
 20
254.699060
 30
0.0
 10
17.535451
 20
255.122843
 30
0.0
 10
15.497151
 20
255.122843
 30
0.0
 10
13.503381
 20
254.699060
 30
0.0
 10
11.641301
 20
253.870014
 30
0.0
 10
9.992281
 20
252.671928
 30
0.0
 10
8.628381
 20
251.157162
 30
0.0
 10
7.609231
 20
249.391941
 30
0.0
 10
6.979361
 20
247.453392
 30
0.0
  0
LWPOLYLINE
  5
111
100
AcDbEntity
  8
0
 62
7
100
AcDbPolyline
 90
30
 70
1
 10
29.143677
 20
245.426260
 30
0.0
 10
29.356738
 20
243.399129
 30
0.0
 10
29.986608
 20
241.460580
 30
0.0
 10
31.005756
 20
239.695359
 30
0.0
 10
32.369657
 20
238.180593
 30
0.0
 10
34.018678
 20
236.982507
 30
0.0
 10
35.880757
 20
236.153461
 30
0.0
 10
37.874527
 20
235.729678
 30
0.0
 10
39.912827
 20
235.729678
 30
0.0
 10
41.906597
 20
236.153461
 30
0.0
 10
43.768677
 20
236.982507
 30
0.0
 10
45.417698
 20
238.180593
 30
0.0
 10
46.781598
 20
239.695359
 30
0.0
 10
47.800747
 20
241.460580
 30
0.0
 10
48.430619
 20
243.399129
 30
0.0
 10
48.643678
 20
245.426260
 30
0.0
 10
48.430619
 20
247.453392
 30
0.0
 10
47.800747
 20
249.391941
 30
0.0
 10
46.781598
 20
251.157162
 30
0.0
 10
45.417698
 20
252.671928
 30
0.0
 10
43.768677
 20
253.870014
 30
0.0
 10
41.906597
 20
254.699060
 30
0.0
 10
39.912827
 20
255.122843
 30
0.0
 10
37.874527
 20
255.122843
 30
0.0
 10
35.880757
 20
254.699060
 30
0.0
 10
34.018678
 20
253.870014
 30
0.0
 10
32.369657
 20
252.671928
 30
0.0
 10
31.005756
 20
251.157162
 30
0.0
 10
29.986608
 20
249.391941
 30
0.0
 10
29.356738
 20
247.453392
 30
0.0
  0
LWPOLYLINE
  5
112
100
AcDbEntity
  8
0
 62
7
100
AcDbPolyline
 90
30
 70
1
 10
51.312540
 20
245.394637
 30
0.0
 10
51.525601
 20
243.367506
 30
0.0
 10
52.155471
 20
241.428957
 30
0.0
 10
53.174622
 20
239.663736
 30
0.0
 10
54.538520
 20
238.148970
 30
0.0
 10
56.187541
 20
236.950884
 30
0.0
 10
58.049620
 20
236.121838
 30
0.0
 10
60.043391
 20
235.698055
 30
0.0
 10
62.081690
 20
235.698055
 30
0.0
 10
64.075461
 20
236.121838
 30
0.0
 10
65.937540
 20
236.950884
 30
0.0
 10
67.586561
 20
238.148970
 30
0.0
 10
68.950462
 20
239.663736
 30
0.0
 10
69.969610
 20
241.428957
 30
0.0
 10
70.599483
 20
243.367506
 30
0.0
 10
70.812541
 20
245.394637
 30
0.0
 10
70.599483
 20
247.421769
 30
0.0
 10
69.969610
 20
249.360318
 30
0.0
 10
68.950462
 20
251.125539
 30
0.0
 10
67.586561
 20
252.640308
 30
0.0
 10
65.937540
 20
253.838394
 30
0.0
 10
64.075461
 20
254.667439
 30
0.0
 10
62.081690
 20
255.091222
 30
0.0
 10
60.043391
 20
255.091222
 30
0.0
 10
58.049620
 20
254.667439
 30
0.0
 10
56.187541
 20
253.838394
 30
0.0
 10
54.538520
 20
252.640308
 30
0.0
 10
53.174622
 20
251.125539
 30
0.0
 10
52.155471
 20
249.360318
 30
0.0
 10
51.525601
 20
247.421769
 30
0.0
  0
LWPOLYLINE
  5
113
100
AcDbEntity
  8
0
 62
7
100
AcDbPolyline
 90
30
 70
1
 10
73.689916
 20
245.394637
 30
0.0
 10
73.902977
 20
243.367506
 30
0.0
 10
74.532847
 20
241.428957
 30
0.0
 10
75.551996
 20
239.663736
 30
0.0
 10
76.915896
 20
238.148970
 30
0.0
 10
78.564917
 20
236.950884
 30
0.0
 10
80.426997
 20
236.121838
 30
0.0
 10
82.420767
 20
235.698055
 30
0.0
 10
84.459067
 20
235.698055
 30
0.0
 10
86.452837
 20
236.121838
 30
0.0
 10
88.314916
 20
236.950884
 30
0.0
 10
89.963937
 20
238.148970
 30
0.0
 10
91.327838
 20
239.663736
 30
0.0
 10
92.346986
 20
241.428957
 30
0.0
 10
92.976859
 20
243.367506
 30
0.0
 10
93.189917
 20
245.394637
 30
0.0
 10
92.976859
 20
247.421769
 30
0.0
 10
92.346986
 20
249.360318
 30
0.0
 10
91.327838
 20
251.125539
 30
0.0
 10
89.963937
 20
252.640308
 30
0.0
 10
88.314916
 20
253.838394
 30
0.0
 10
86.452837
 20
254.667439
 30
0.0
 10
84.459067
 20
255.091222
 30
0.0
 10
82.420767
 20
255.091222
 30
0.0
 10
80.426997
 20
254.667439
 30
0.0
 10
78.564917
 20
253.838394
 30
0.0
 10
76.915896
 20
252.640308
 30
0.0
 10
75.551996
 20
251.125539
 30
0.0
 10
74.532847
 20
249.360318
 30
0.0
 10
73.902977
 20
247.421769
 30
0.0
  0
LWPOLYLINE
  5
114
100
AcDbEntity
  8
0
 62
7
100
AcDbPolyline
 90
30
 70
1
 10
96.210501
 20
245.410449
 30
0.0
 10
96.423562
 20
243.383317
 30
0.0
 10
97.053432
 20
241.444768
 30
0.0
 10
98.072580
 20
239.679547
 30
0.0
 10
99.436481
 20
238.164781
 30
0.0
 10
101.085502
 20
236.966695
 30
0.0
 10
102.947581
 20
236.137650
 30
0.0
 10
104.941351
 20
235.713867
 30
0.0
 10
106.979651
 20
235.713867
 30
0.0
 10
108.973422
 20
236.137650
 30
0.0
 10
110.835501
 20
236.966695
 30
0.0
 10
112.484522
 20
238.164781
 30
0.0
 10
113.848422
 20
239.679547
 30
0.0
 10
114.867571
 20
241.444768
 30
0.0
 10
115.497443
 20
243.383317
 30
0.0
 10
115.710502
 20
245.410449
 30
0.0
 10
115.497443
 20
247.437581
 30
0.0
 10
114.867571
 20
249.376130
 30
0.0
 10
113.848422
 20
251.141350
 30
0.0
 10
112.484522
 20
252.656116
 30
0.0
 10
110.835501
 20
253.854203
 30
0.0
 10
108.973422
 20
254.683248
 30
0.0
 10
106.979651
 20
255.107031
 30
0.0
 10
104.941351
 20
255.107031
 30
0.0
 10
102.947581
 20
254.683248
 30
0.0
 10
101.085502
 20
253.854203
 30
0.0
 10
99.436481
 20
252.656116
 30
0.0
 10
98.072580
 20
251.141350
 30
0.0
 10
97.053432
 20
249.376130
 30
0.0
 10
96.423562
 20
247.437581
 30
0.0
  0
LWPOLYLINE
  5
115
100
AcDbEntity
  8
0
 62
7
100
AcDbPolyline
 90
30
 70
1
 10
118.587877
 20
245.410449
 30
0.0
 10
118.800938
 20
243.383317
 30
0.0
 10
119.430808
 20
241.444768
 30
0.0
 10
120.449956
 20
239.679547
 30
0.0
 10
121.813857
 20
238.164781
 30
0.0
 10
123.462878
 20
236.966695
 30
0.0
 10
125.324957
 20
236.137650
 30
0.0
 10
127.318728
 20
235.713867
 30
0.0
 10
129.357027
 20
235.713867
 30
0.0
 10
131.350798
 20
236.137650
 30
0.0
 10
133.212877
 20
236.966695
 30
0.0
 10
134.861898
 20
238.164781
 30
0.0
 10
136.225799
 20
239.679547
 30
0.0
 10
137.244947
 20
241.444768
 30
0.0
 10
137.874820
 20
243.383317
 30
0.0
 10
138.087878
 20
245.410449
 30
0.0
 10
137.874820
 20
247.437581
 30
0.0
 10
137.244947
 20
249.376130
 30
0.0
 10
136.225799
 20
251.141350
 30
0.0
 10
134.861898
 20
252.656116
 30
0.0
 10
133.212877
 20
253.854203
 30
0.0
 10
131.350798
 20
254.683248
 30
0.0
 10
129.357027
 20
255.107031
 30
0.0
 10
127.318728
 20
255.107031
 30
0.0
 10
125.324957
 20
254.683248
 30
0.0
 10
123.462878
 20
253.854203
 30
0.0
 10
121.813857
 20
252.656116
 30
0.0
 10
120.449956
 20
251.141350
 30
0.0
 10
119.430808
 20
249.376130
 30
0.0
 10
118.800938
 20
247.437581
 30
0.0
  0
LWPOLYLINE
  5
116
100
AcDbEntity
  8
0
 62
7
100
AcDbPolyline
 90
30
 70
1
 10
140.756741
 20
245.378829
 30
0.0
 10
140.969802
 20
243.351697
 30
0.0
 10
141.599671
 20
241.413148
 30
0.0
 10
142.618822
 20
239.647927
 30
0.0
 10
143.982720
 20
238.133161
 30
0.0
 10
145.631741
 20
236.935075
 30
0.0
 10
147.493821
 20
236.106029
 30
0.0
 10
149.487591
 20
235.682246
 30
0.0
 10
151.525891
 20
235.682246
 30
0.0
 10
153.519661
 20
236.106029
 30
0.0
 10
155.381740
 20
236.935075
 30
0.0
 10
157.030761
 20
238.133161
 30
0.0
 10
158.394662
 20
239.647927
 30
0.0
 10
159.413810
 20
241.413148
 30
0.0
 10
160.043683
 20
243.351697
 30
0.0
 10
160.256741
 20
245.378829
 30
0.0
 10
160.043683
 20
247.405960
 30
0.0
 10
159.413810
 20
249.344509
 30
0.0
 10
158.394662
 20
251.109730
 30
0.0
 10
157.030761
 20
252.624496
 30
0.0
 10
155.381740
 20
253.822582
 30
0.0
 10
153.519661
 20
254.651628
 30
0.0
 10
151.525891
 20
255.075411
 30
0.0
 10
149.487591
 20
255.075411
 30
0.0
 10
147.493821
 20
254.651628
 30
0.0
 10
145.631741
 20
253.822582
 30
0.0
 10
143.982720
 20
252.624496
 30
0.0
 10
142.618822
 20
251.109730
 30
0.0
 10
141.599671
 20
249.344509
 30
0.0
 10
140.969802
 20
247.405960
 30
0.0
  0
LWPOLYLINE
  5
117
100
AcDbEntity
  8
0
 62
7
100
AcDbPolyline
 90
30
 70
1
 10
163.134117
 20
245.378829
 30
0.0
 10
163.347178
 20
243.351697
 30
0.0
 10
163.977047
 20
241.413148
 30
0.0
 10
164.996196
 20
239.647927
 30
0.0
 10
166.360097
 20
238.133161
 30
0.0
 10
168.009118
 20
236.935075
 30
0.0
 10
169.871197
 20
236.106029
 30
0.0
 10
171.864967
 20
235.682246
 30
0.0
 10
173.903267
 20
235.682246
 30
0.0
 10
175.897037
 20
236.106029
 30
0.0
 10
177.759117
 20
236.935075
 30
0.0
 10
179.408138
 20
238.133161
 30
0.0
 10
180.772038
 20
239.647927
 30
0.0
 10
181.791187
 20
241.413148
 30
0.0
 10
182.421059
 20
243.351697
 30
0.0
 10
182.634117
 20
245.378829
 30
0.0
 10
182.421059
 20
247.405960
 30
0.0
 10
181.791187
 20
249.344509
 30
0.0
 10
180.772038
 20
251.109730
 30
0.0
 10
179.408138
 20
252.624496
 30
0.0
 10
177.759117
 20
253.822582
 30
0.0
 10
175.897037
 20
254.651628
 30
0.0
 10
173.903267
 20
255.075411
 30
0.0
 10
171.864967
 20
255.075411
 30
0.0
 10
169.871197
 20
254.651628
 30
0.0
 10
168.009118
 20
253.822582
 30
0.0
 10
166.360097
 20
252.624496
 30
0.0
 10
164.996196
 20
251.109730
 30
0.0
 10
163.977047
 20
249.344509
 30
0.0
 10
163.347178
 20
247.405960
 30
0.0
  0
LWPOLYLINE
  5
118
100
AcDbEntity
  8
0
 62
7
100
AcDbPolyline
 90
30
 70
1
 10
184.842804
 20
283.133065
 30
0.0
 10
185.055865
 20
281.105934
 30
0.0
 10
185.685734
 20
279.167384
 30
0.0
 10
186.704883
 20
277.402164
 30
0.0
 10
188.068783
 20
275.887398
 30
0.0
 10
189.717804
 20
274.689312
 30
0.0
 10
191.579884
 20
273.860266
 30
0.0
 10
193.573654
 20
273.436483
 30
0.0
 10
195.611954
 20
273.436483
 30
0.0
 10
197.605724
 20
273.860266
 30
0.0
 10
199.467803
 20
274.689312
 30
0.0
 10
201.116824
 20
275.887398
 30
0.0
 10
202.480725
 20
277.402164
 30
0.0
 10
203.499873
 20
279.167384
 30
0.0
 10
204.129746
 20
281.105934
 30
0.0
 10
204.342804
 20
283.133065
 30
0.0
 10
204.129746
 20
285.160197
 30
0.0
 10
203.499873
 20
287.098746
 30
0.0
 10
202.480725
 20
288.863967
 30
0.0
 10
201.116824
 20
290.378733
 30
0.0
 10
199.467803
 20
291.576819
 30
0.0
 10
197.605724
 20
292.405864
 30
0.0
 10
195.611954
 20
292.829648
 30
0.0
 10
193.573654
 20
292.829648
 30
0.0
 10
191.579884
 20
292.405864
 30
0.0
 10
189.717804
 20
291.576819
 30
0.0
 10
188.068783
 20
290.378733
 30
0.0
 10
186.704883
 20
288.863967
 30
0.0
 10
185.685734
 20
287.098746
 30
0.0
 10
185.055865
 20
285.160197
 30
0.0
  0
ENDSEC
  0
SECTION
  2
OBJECTS
  0
DICTIONARY
  5
C
330
0
100
AcDbDictionary
  3
ACAD_GROUP
350
D
  3
ACAD_MLINESTYLE
350
17
  0
DICTIONARY
  5
D
330
C
100
AcDbDictionary
  0
DICTIONARY
  5
1A
330
C
100
AcDbDictionary
  0
DICTIONARY
  5
17
330
C
100
AcDbDictionary
  3
STANDARD
350
18
  0
DICTIONARY
  5
19
330
C
100
AcDbDictionary
  0
ENDSEC
  0
EOF
