  0
SECTION
  2
BLOCKS
  0
ENDSEC
  0
SECTION
  2
ENTITIES
  0
LINE
  8
0
 10
-9.75
 20
0
 11
-9.53694
 21
-2.02714
  0
LINE
  8
0
 10
-9.53694
 20
-2.02714
 11
-8.90707
 21
-3.96568
  0
LINE
  8
0
 10
-8.90707
 20
-3.96568
 11
-7.88792
 21
-5.73091
  0
LINE
  8
0
 10
-7.88792
 20
-5.73091
 11
-6.52402
 21
-7.24566
  0
LINE
  8
0
 10
-6.52402
 20
-7.24566
 11
-4.875
 21
-8.44375
  0
LINE
  8
0
 10
-4.875
 20
-8.44375
 11
-3.01292
 21
-9.2728
  0
LINE
  8
0
 10
-3.01292
 20
-9.2728
 11
-1.01915
 21
-9.69659
  0
LINE
  8
0
 10
-1.01915
 20
-9.69659
 11
1.01915
 21
-9.69659
  0
LINE
  8
0
 10
1.01915
 20
-9.69659
 11
3.01292
 21
-9.2728
  0
LINE
  8
0
 10
3.01292
 20
-9.2728
 11
4.875
 21
-8.44375
  0
LINE
  8
0
 10
4.875
 20
-8.44375
 11
6.52402
 21
-7.24566
  0
LINE
  8
0
 10
6.52402
 20
-7.24566
 11
7.88792
 21
-5.73091
  0
LINE
  8
0
 10
7.88792
 20
-5.73091
 11
8.90707
 21
-3.96568
  0
LINE
  8
0
 10
8.90707
 20
-3.96568
 11
9.53694
 21
-2.02714
  0
LINE
  8
0
 10
9.53694
 20
-2.02714
 11
9.75
 21
0
  0
LINE
  8
0
 10
9.75
 20
0
 11
9.53694
 21
2.02714
  0
LINE
  8
0
 10
9.53694
 20
2.02714
 11
8.90707
 21
3.96568
  0
LINE
  8
0
 10
8.90707
 20
3.96568
 11
7.88792
 21
5.73091
  0
LINE
  8
0
 10
7.88792
 20
5.73091
 11
6.52402
 21
7.24566
  0
LINE
  8
0
 10
6.52402
 20
7.24566
 11
4.875
 21
8.44375
  0
LINE
  8
0
 10
4.875
 20
8.44375
 11
3.01292
 21
9.2728
  0
LINE
  8
0
 10
3.01292
 20
9.2728
 11
1.01915
 21
9.69659
  0
LINE
  8
0
 10
1.01915
 20
9.69659
 11
-1.01915
 21
9.69659
  0
LINE
  8
0
 10
-1.01915
 20
9.69659
 11
-3.01292
 21
9.2728
  0
LINE
  8
0
 10
-3.01292
 20
9.2728
 11
-4.875
 21
8.44375
  0
LINE
  8
0
 10
-4.875
 20
8.44375
 11
-6.52402
 21
7.24566
  0
LINE
  8
0
 10
-6.52402
 20
7.24566
 11
-7.88792
 21
5.73091
  0
LINE
  8
0
 10
-7.88792
 20
5.73091
 11
-8.90707
 21
3.96568
  0
LINE
  8
0
 10
-8.90707
 20
3.96568
 11
-9.53694
 21
2.02714
  0
LINE
  8
0
 10
-9.53694
 20
2.02714
 11
-9.75
 21
0
  0
ENDSEC
  0
SECTION
  2
OBJECTS
  0
DICTIONARY
  0
ENDSEC
  0
EOF
